# xmcd
#
# Track frame offsets: 
#        150
#        15699
#        32098
#        52950
#
# Disc length: 913 seconds
#
# Revision: 1
# Processed by: cddbd v1.5.2PL0 Copyright (c) Steve Scherf et al.
# Submitted via: ExactAudioCopyFreeDBPlugin 1.0
#
DISCID=27038f04
DTITLE=豊口めぐみ - 『鋼の錬金術師 2003』ハガレン・ソングファイル 第4弾 -ウィンリィ・ロックベル-
DYEAR=2005
DGENRE=Anime
TTITLE0=BOY FRIENDS!
TTITLE1=恋愛参考書 〜Love reference book〜
TTITLE2=銀時計
TTITLE3=BOY FRIENDS!(Instrumental)
EXTD=YEAR: 2005
EXTT0=
EXTT1=
EXTT2=
EXTT3=
PLAYORDER=
